<mxfile host="app.diagrams.net" agent="Mozilla/5.0 (Windows NT 10.0; Win64; x64) AppleWebKit/537.36 (KHTML, like Gecko) Chrome/140.0.0.0 Safari/537.36" version="28.2.3">
  <diagram name="Trang-1" id="QDZ66A17nQDkJxcViGET">
    <mxGraphModel dx="1042" dy="527" grid="1" gridSize="10" guides="1" tooltips="1" connect="1" arrows="1" fold="1" page="1" pageScale="1" pageWidth="827" pageHeight="1169" math="0" shadow="0">
      <root>
        <mxCell id="0" />
        <mxCell id="1" parent="0" />
        <mxCell id="ht2CwpdhTKZxIf9Jbx8b-3" value="" style="edgeStyle=orthogonalEdgeStyle;rounded=0;orthogonalLoop=1;jettySize=auto;html=1;" edge="1" parent="1" source="ht2CwpdhTKZxIf9Jbx8b-1" target="ht2CwpdhTKZxIf9Jbx8b-2">
          <mxGeometry relative="1" as="geometry">
            <Array as="points">
              <mxPoint x="400" y="170" />
              <mxPoint x="400" y="170" />
            </Array>
          </mxGeometry>
        </mxCell>
        <mxCell id="ht2CwpdhTKZxIf9Jbx8b-1" value="BẮT ĐẦU" style="ellipse;whiteSpace=wrap;html=1;" vertex="1" parent="1">
          <mxGeometry x="340" y="20" width="120" height="80" as="geometry" />
        </mxCell>
        <mxCell id="ht2CwpdhTKZxIf9Jbx8b-2" value="Nhập số nguyên N" style="shape=parallelogram;perimeter=parallelogramPerimeter;whiteSpace=wrap;html=1;fixedSize=1;" vertex="1" parent="1">
          <mxGeometry x="330" y="190" width="130" height="60" as="geometry" />
        </mxCell>
        <mxCell id="ht2CwpdhTKZxIf9Jbx8b-7" value="" style="edgeStyle=orthogonalEdgeStyle;rounded=0;orthogonalLoop=1;jettySize=auto;html=1;entryX=0.5;entryY=0;entryDx=0;entryDy=0;" edge="1" parent="1" source="ht2CwpdhTKZxIf9Jbx8b-2" target="ht2CwpdhTKZxIf9Jbx8b-6">
          <mxGeometry relative="1" as="geometry" />
        </mxCell>
        <mxCell id="ht2CwpdhTKZxIf9Jbx8b-9" value="" style="edgeStyle=orthogonalEdgeStyle;rounded=0;orthogonalLoop=1;jettySize=auto;html=1;" edge="1" parent="1" source="ht2CwpdhTKZxIf9Jbx8b-6" target="ht2CwpdhTKZxIf9Jbx8b-8">
          <mxGeometry relative="1" as="geometry" />
        </mxCell>
        <mxCell id="ht2CwpdhTKZxIf9Jbx8b-12" value="Y" style="edgeLabel;html=1;align=center;verticalAlign=middle;resizable=0;points=[];" vertex="1" connectable="0" parent="ht2CwpdhTKZxIf9Jbx8b-9">
          <mxGeometry x="-0.2083" y="3" relative="1" as="geometry">
            <mxPoint as="offset" />
          </mxGeometry>
        </mxCell>
        <mxCell id="ht2CwpdhTKZxIf9Jbx8b-11" value="" style="edgeStyle=orthogonalEdgeStyle;rounded=0;orthogonalLoop=1;jettySize=auto;html=1;" edge="1" parent="1" source="ht2CwpdhTKZxIf9Jbx8b-6" target="ht2CwpdhTKZxIf9Jbx8b-10">
          <mxGeometry relative="1" as="geometry" />
        </mxCell>
        <mxCell id="ht2CwpdhTKZxIf9Jbx8b-13" value="N" style="edgeLabel;html=1;align=center;verticalAlign=middle;resizable=0;points=[];" vertex="1" connectable="0" parent="ht2CwpdhTKZxIf9Jbx8b-11">
          <mxGeometry x="0.0119" y="3" relative="1" as="geometry">
            <mxPoint as="offset" />
          </mxGeometry>
        </mxCell>
        <mxCell id="ht2CwpdhTKZxIf9Jbx8b-6" value="&amp;nbsp;N chia hết cho 2 ?" style="rhombus;whiteSpace=wrap;html=1;" vertex="1" parent="1">
          <mxGeometry x="355" y="300" width="80" height="80" as="geometry" />
        </mxCell>
        <mxCell id="ht2CwpdhTKZxIf9Jbx8b-8" value="In Chẵn" style="shape=parallelogram;perimeter=parallelogramPerimeter;whiteSpace=wrap;html=1;fixedSize=1;" vertex="1" parent="1">
          <mxGeometry x="570" y="310" width="120" height="60" as="geometry" />
        </mxCell>
        <mxCell id="ht2CwpdhTKZxIf9Jbx8b-10" value="In Lẻ" style="shape=parallelogram;perimeter=parallelogramPerimeter;whiteSpace=wrap;html=1;fixedSize=1;" vertex="1" parent="1">
          <mxGeometry x="60" y="310" width="120" height="60" as="geometry" />
        </mxCell>
        <mxCell id="ht2CwpdhTKZxIf9Jbx8b-14" value="Kết thúc" style="ellipse;whiteSpace=wrap;html=1;" vertex="1" parent="1">
          <mxGeometry x="340" y="460" width="120" height="80" as="geometry" />
        </mxCell>
        <mxCell id="ht2CwpdhTKZxIf9Jbx8b-15" value="" style="endArrow=classic;html=1;rounded=0;exitX=0.5;exitY=1;exitDx=0;exitDy=0;" edge="1" parent="1" source="ht2CwpdhTKZxIf9Jbx8b-10" target="ht2CwpdhTKZxIf9Jbx8b-14">
          <mxGeometry width="50" height="50" relative="1" as="geometry">
            <mxPoint x="390" y="500" as="sourcePoint" />
            <mxPoint x="440" y="450" as="targetPoint" />
            <Array as="points">
              <mxPoint x="120" y="500" />
            </Array>
          </mxGeometry>
        </mxCell>
        <mxCell id="ht2CwpdhTKZxIf9Jbx8b-16" value="" style="endArrow=classic;html=1;rounded=0;exitX=0.6;exitY=1.027;exitDx=0;exitDy=0;exitPerimeter=0;entryX=1;entryY=0.5;entryDx=0;entryDy=0;" edge="1" parent="1" source="ht2CwpdhTKZxIf9Jbx8b-8" target="ht2CwpdhTKZxIf9Jbx8b-14">
          <mxGeometry width="50" height="50" relative="1" as="geometry">
            <mxPoint x="390" y="500" as="sourcePoint" />
            <mxPoint x="440" y="450" as="targetPoint" />
            <Array as="points">
              <mxPoint x="642" y="500" />
            </Array>
          </mxGeometry>
        </mxCell>
      </root>
    </mxGraphModel>
  </diagram>
</mxfile>
